<?xml version="1.0" encoding="UTF-8" standalone="no"?>
<svg xmlns:dc="http://purl.org/dc/elements/1.1/" xmlns:cc="http://creativecommons.org/ns#" xmlns:rdf="http://www.w3.org/1999/02/22-rdf-syntax-ns#" xmlns:svg="http://www.w3.org/2000/svg" xmlns="http://www.w3.org/2000/svg" viewBox="0 0 755.90533 755.90533" height="755.90533" width="755.90533" xml:space="preserve" id="svg2" version="1.1"><metadata id="metadata8"><rdf:RDF><cc:Work rdf:about=""><dc:format>image/svg+xml</dc:format><dc:type rdf:resource="http://purl.org/dc/dcmitype/StillImage"/></cc:Work></rdf:RDF></metadata><defs id="defs6"><clipPath id="clipPath20" clipPathUnits="userSpaceOnUse"><path id="path18" d="M 0,566.929 H 566.929 V 0 H 0 Z"/></clipPath></defs><g transform="matrix(1.3333333,0,0,-1.3333333,0,755.90533)" id="g10"><path id="path12" style="fill:#2e3192;fill-opacity:1;fill-rule:nonzero;stroke:none" d="M 0,0 H 566.929 V 566.929 H 0 Z"/><g id="g14"><g clip-path="url(#clipPath20)" id="g16"><g transform="translate(356.6014,508.9928)" id="g22"><path id="path24" style="fill:#ffffff;fill-opacity:1;fill-rule:evenodd;stroke:none" d="m 0,0 c 11.33,0.873 46.736,-22.657 74.68,-53.85 40.18,-44.854 38.193,-85.253 40.957,-85.253 h 6.044 L 120.763,14.901 0,16.163 V -2.039 l 0.367,-0.151 0.766,-138.782 -12.099,-0.352 c -28.831,47.718 -69.738,41.268 -134.64,42.198 l 0.336,-41.397 h -121.864 c 0,51.388 -0.086,106.398 -0.086,157.786 C -168.146,15.478 -65.41,25.491 0,-2.039 Z m -127.003,-268.672 c 19.042,-1.469 56.899,-0.356 77.224,8.108 22.324,9.297 33.78,27.493 34.56,27.493 H 0 v -130.539 -0.044 -0.1 -0.154 -0.204 -0.249 -0.291 -0.328 -0.363 -0.392 -0.419 -0.441 -0.459 -0.475 -0.485 -0.492 -0.495 -0.493 -0.49 -0.48 -0.47 -0.452 -0.274 c -21.655,-7.781 -44.838,-15.392 -60.225,-15.943 l -66.778,-1.193 z M 0,-371.073 c 11.33,-0.873 46.736,22.657 74.68,53.85 40.18,44.853 38.193,85.253 40.957,85.253 h 6.044 L 120.763,-385.975 0,-387.236 v 15.576 z m 0,-0.587 v 0.508 1.161 1.049 0.943 0.839 0.739 0.644 0.551 0.464 0.38 0.3 0.223 0.151 0.081 0.017 m -267.953,130.539 h 121.863 v -154.165 h -121.863 z"/></g><g transform="translate(94.6653,101.9355)" id="g26"><path id="path28" style="fill:#ffffff;fill-opacity:1;fill-rule:evenodd;stroke:none" d="M 0,0 V -5.752 H 10.067 V -55.879 H 0 v -5.753 h 34.514 v 5.753 H 16.435 v 23.317 h 14.073 v -9.656 h 6.368 v 24.139 H 30.508 V -26.81 H 16.435 v 21.058 h 17.257 c 8.115,0 8.526,-1.233 8.526,-9.451 v -2.67 h 6.368 l 0,17.873 z m 143.499,-5.752 c 8.115,0 8.423,-0.925 8.423,-9.451 v -2.67 h 6.369 V 0 h -48.792 v -5.752 h 10.272 v -50.127 h -10.272 v -5.753 h 50.743 v 20.03 h -6.368 v -1.951 c 0,-11.402 -0.719,-12.326 -8.526,-12.326 H 126.14 v 24.96 h 14.072 v -9.655 h 6.369 v 24.036 h -6.369 v -8.628 H 126.14 v 19.414 z m 80.121,0.821 8.526,-1.027 v -49.921 h -8.526 v -5.753 h 30.302 v 5.753 h -15.407 v 20.646 l 8.731,-0.205 c 14.997,-0.308 22.701,7.704 22.701,19.311 0,11.504 -8.32,16.127 -18.079,16.127 -5.855,0 -11.71,-1.233 -17.565,-1.233 -3.595,0 -7.088,0.822 -10.683,1.233 z m 14.895,-24.55 v 23.523 c 4.006,0.411 8.012,1.233 12.12,1.233 7.191,0 12.635,-3.801 12.635,-11.505 0,-8.628 -5.239,-13.764 -16.23,-13.456 z M 338.358,0 v -5.752 h 16.435 v -50.127 h -16.435 v -5.753 h 39.239 v 5.753 h -16.435 v 50.127 h 16.435 V 0 Z"/></g><g transform="translate(95.2682,343.0187)" id="g30"><path id="path32" style="fill:#ffffff;fill-opacity:1;fill-rule:evenodd;stroke:none" d="m 0,0 5.982,0.665 c 7.312,0.831 17.365,-4.985 17.365,-21.603 0,-13.958 -6.065,-18.943 -15.038,-18.943 H 0 Z m -2.659,-44.202 c 3.656,0.415 7.395,-0.332 11.134,-0.332 11.133,0 20.273,6.314 20.273,24.593 0,17.449 -10.137,25.259 -22.184,25.259 -3.822,0 -6.979,-0.997 -10.22,-0.997 -2.659,0 -5.234,0.664 -7.893,0.997 L -11.715,1.413 -5.151,0 v -39.881 l -6.814,-0.665 0.749,-4.653 z M 53.425,5.318 V 0.665 H 66.719 V -39.881 H 53.425 v -4.653 h 31.739 v 4.653 H 71.87 V 0.665 h 13.294 v 4.653 z m 66.386,-5.235 c 2.991,0.332 5.816,0.582 8.558,0.582 5.816,0 10.386,-2.493 10.386,-8.807 0,-5.401 -4.072,-9.472 -14.624,-9.306 l -4.32,0.083 z m 13.543,-21.104 c 6.564,1.911 10.801,6.398 10.801,13.46 0,9.14 -7.644,12.879 -15.869,12.879 -4.238,0 -8.558,-0.997 -12.796,-0.997 -2.824,0 -5.068,0.415 -7.643,0.997 V 0.914 l 6.813,-0.831 v -39.964 h -6.813 v -4.653 h 19.857 v 4.653 h -7.893 v 18.029 h 8.059 l 15.122,-22.682 h 9.14 v 4.653 h -5.983 z m 61.568,21.686 c 6.563,0 6.813,-0.748 6.813,-7.644 v -2.16 h 5.151 V 5.318 H 167.42 V 0.665 h 8.309 v -40.546 h -8.309 v -4.653 h 41.044 v 16.202 h -5.151 v -1.579 c 0,-9.223 -0.582,-9.97 -6.896,-9.97 H 180.88 v 20.19 h 11.383 v -7.811 h 5.151 v 19.443 h -5.151 v -6.98 H 180.88 V 0.665 Z m 37.97,4.653 V 0.665 h 13.294 v -40.546 h -13.294 v -4.653 h 31.739 v 4.653 H 251.337 V 0.665 h 13.294 v 4.653 z m 55.004,0 v -17.532 h 5.151 v 6.315 c 0,5.816 0.499,6.564 6.232,6.564 h 6.73 v -40.546 h -10.885 v -4.653 h 26.92 v 4.653 H 311.16 V 0.665 h 6.73 c 5.733,0 6.231,-0.748 6.231,-6.564 v -6.315 h 5.152 V 5.318 Z m 80.511,0.997 c -13.793,0 -19.941,-13.294 -19.941,-25.923 0,-12.63 6.148,-25.923 19.941,-25.923 13.792,0 19.94,13.293 19.94,25.923 0,12.629 -6.148,25.923 -19.94,25.923 m 0,-47.194 c -10.719,0 -14.541,11.799 -14.541,21.271 0,9.472 3.822,21.27 14.541,21.27 10.718,0 14.54,-11.798 14.54,-21.27 0,-9.472 -3.822,-21.271 -14.54,-21.271"/></g></g></g></g></svg>